<svg width="17.811279" height="18.000000" viewBox="0 0 17.8113 18" fill="none" xmlns="http://www.w3.org/2000/svg" xmlns:xlink="http://www.w3.org/1999/xlink">
	<desc>
			Created with Pixso.
	</desc>
	<defs/>
	<g opacity="0.240000">
		<mask id="mask_0_81" fill="white">
			<path id="Combined-Shape" d="M3.90552 1C3.90552 0.447716 4.35474 0 4.90088 0L12.9102 0C13.46 0 13.9055 0.443863 13.9055 1C13.9055 1.55228 13.4565 2 12.9102 2L4.90088 2C4.35132 2 3.90552 1.55614 3.90552 1ZM2.90112 3C2.35547 3 1.90552 3.44772 1.90552 4C1.90552 4.55614 2.35132 5 2.90112 5L14.9099 5C15.4556 5 15.9055 4.55228 15.9055 4C15.9055 3.44386 15.46 3 14.9099 3L2.90112 3ZM0.811035 16.1041L0.0100098 8.0949C-0.10376 6.95576 0.759277 6 1.90649 6L15.9048 6C17.0496 6 17.9153 6.95379 17.801 8.0949L17.0002 16.1041C16.8943 17.1632 15.9712 18 14.9099 18L2.90112 18C1.83594 18 0.917236 17.1665 0.811035 16.1041ZM2.01099 8.00421L15.7998 8.0079L14.9055 16L2.90552 16L2.01099 8.00421Z" clip-rule="evenodd" fill="" fill-opacity="1.000000" fill-rule="evenodd"/>
		</mask>
		<path id="Combined-Shape" d="M3.90552 1C3.90552 0.447716 4.35474 0 4.90088 0L12.9102 0C13.46 0 13.9055 0.443863 13.9055 1C13.9055 1.55228 13.4565 2 12.9102 2L4.90088 2C4.35132 2 3.90552 1.55614 3.90552 1ZM2.90112 3C2.35547 3 1.90552 3.44772 1.90552 4C1.90552 4.55614 2.35132 5 2.90112 5L14.9099 5C15.4556 5 15.9055 4.55228 15.9055 4C15.9055 3.44386 15.46 3 14.9099 3L2.90112 3ZM0.811035 16.1041L0.0100098 8.0949C-0.10376 6.95576 0.759277 6 1.90649 6L15.9048 6C17.0496 6 17.9153 6.95379 17.801 8.0949L17.0002 16.1041C16.8943 17.1632 15.9712 18 14.9099 18L2.90112 18C1.83594 18 0.917236 17.1665 0.811035 16.1041ZM2.01099 8.00421L15.7998 8.0079L14.9055 16L2.90552 16L2.01099 8.00421Z" clip-rule="evenodd" fill="#000000" fill-opacity="1.000000" fill-rule="evenodd" mask="url(#mask_0_81)"/>
		<path id="Combined-Shape" d="M12.9102 2C13.4565 2 13.9055 1.55228 13.9055 1C13.9055 0.443863 13.46 0 12.9102 0L4.90088 0C4.35474 0 3.90552 0.447716 3.90552 1C3.90552 1.55614 4.35132 2 4.90088 2L12.9102 2ZM12.9102 3L2.90112 3C2.35547 3 1.90552 3.44772 1.90552 4C1.90552 4.55614 2.35132 5 2.90112 5L14.9099 5C15.4556 5 15.9055 4.55228 15.9055 4C15.9055 3.44386 15.46 3 14.9099 3L12.9102 3ZM2.90112 6L1.90649 6C0.759277 6 -0.10376 6.95576 0.0100098 8.0949L0.811035 16.1041C0.917236 17.1665 1.83594 18 2.90112 18L14.9099 18C15.9712 18 16.8943 17.1632 17.0002 16.1041L17.801 8.0949C17.9153 6.95379 17.0496 6 15.9048 6L2.90112 6ZM1.83256 16.1567Q1.81384 16.082 1.80615 16.0046L1.01669 8.11103L1.94849 16.4393Q1.9341 16.4146 1.9209 16.3891Q1.86256 16.2764 1.83256 16.1567ZM1.81285 7.00416L2.01123 7.00421L16.0333 7.00796Q15.9705 7 15.9048 7L1.90649 7Q1.8589 7 1.81285 7.00416ZM16.7946 8.11042L15.8631 16.4365Q15.8774 16.4119 15.8906 16.3865Q15.9535 16.2652 15.9834 16.1362Q15.9984 16.0713 16.0051 16.0046L16.7946 8.11042ZM2.12286 9.00424L2.90552 16L14.9055 16L15.6879 9.00787L15.7998 8.0079L14.7935 8.00763L3.01735 8.00448L2.01099 8.00421L2.12286 9.00424Z" clip-rule="evenodd" fill="#000000" fill-opacity="1.000000" fill-rule="evenodd"/>
	</g>
</svg>
